<?xml version="1.0" encoding="UTF-8"?>
<!-- Generator: visioncortex VTracer 0.6.3 -->
<svg version="1.1" xmlns="http://www.w3.org/2000/svg" width="1274" height="1280">
<path d="M0 0 C420.42 0 840.84 0 1274 0 C1274 422.4 1274 844.8 1274 1280 C853.58 1280 433.16 1280 0 1280 C0 857.6 0 435.2 0 0 Z " fill="#58C3A7" transform="translate(0,0)"/>
<path d="M0 0 C420.42 0 840.84 0 1274 0 C1274 422.4 1274 844.8 1274 1280 C853.58 1280 433.16 1280 0 1280 C0 857.6 0 435.2 0 0 Z M627 30 C625.91 31.12 624.82 32.25 623.74 33.38 C619.85 37 615.32 39.91 611 43 C606.8 46.09 602.66 49.27 598.56 52.5 C593.66 56.33 588.58 60.21 583 63 C583 63.66 583 64.32 583 65 C582.12 65.41 582.12 65.41 581.23 65.83 C579.07 66.96 577.29 68.2 575.38 69.69 C572.37 71.99 569.31 74.18 566.19 76.31 C562.59 78.81 559.18 81.45 555.81 84.25 C550.37 88.77 544.71 92.94 538.98 97.09 C534.81 100.13 530.68 103.21 526.56 106.31 C525.61 107.03 525.61 107.03 524.63 107.76 C523.39 108.7 522.14 109.64 520.9 110.57 C519.57 111.57 518.24 112.56 516.91 113.55 C513.32 116.24 509.78 118.96 506.31 121.81 C501.89 125.38 497.3 128.59 492.61 131.78 C489.11 134.18 485.89 136.71 482.73 139.54 C479.82 141.99 476.65 144.07 473.52 146.23 C471.2 147.86 468.97 149.55 466.75 151.31 C462.96 154.3 459.07 157.1 455.12 159.88 C449.77 163.65 444.68 167.65 439.65 171.85 C436.1 174.73 432.4 177.37 428.68 180.04 C426.06 181.96 423.53 183.95 421 186 C415.81 190.2 410.43 194.11 405 198 C398.65 202.57 392.37 207.22 386.18 212.01 C377.25 218.91 368.22 225.67 359.1 232.3 C354.07 235.95 349.15 239.64 344.38 243.62 C339.63 247.58 334.65 251.06 329.55 254.53 C324.77 257.81 320.17 261.33 315.56 264.84 C312.6 267.08 309.66 269.24 306.53 271.23 C305.69 271.81 304.86 272.4 304 273 C304 273.66 304 274.32 304 275 C303.42 275.27 302.85 275.54 302.26 275.82 C298.3 277.89 294.79 280.63 291.19 283.25 C290.01 284.09 290.01 284.09 288.82 284.95 C285.24 287.54 281.75 290.16 278.42 293.07 C274.85 296.2 271.03 298.88 267.12 301.56 C258.88 307.3 250.9 313.35 242.95 319.5 C239.66 322.03 236.33 324.52 233 327 C224.76 333.16 216.53 339.35 208.38 345.62 C203.34 349.5 198.26 353.28 193.06 356.94 C182.62 364.29 172.59 372.25 162.69 380.31 C158 384.1 153.07 387.46 148.08 390.82 C144.87 393.09 141.91 395.37 139 398 C139 398.66 139 399.32 139 400 C138.3 400.25 137.59 400.51 136.87 400.77 C130.16 403.65 123.57 408.04 118.62 413.44 C115.07 417.26 110.79 419.8 106.4 422.53 C101.55 425.56 97.22 428.99 92.85 432.68 C89.64 435.29 86.32 437.68 82.94 440.06 C78.86 442.93 74.87 445.84 71 449 C66.45 452.71 61.71 456.12 56.91 459.5 C53.51 461.89 50.23 464.38 47 467 C45.01 468.53 43.01 470.05 41 471.56 C39.48 472.71 39.48 472.71 37.94 473.88 C35 476 35 476 32.19 477.65 C29.87 478.81 29.87 478.81 29 481 C28.91 482.48 28.88 483.96 28.88 485.45 C28.87 486.39 28.87 487.33 28.87 488.3 C28.87 489.34 28.88 490.38 28.88 491.45 C28.88 492.55 28.88 493.65 28.88 494.79 C28.88 498.5 28.88 502.21 28.89 505.92 C28.89 508.57 28.89 511.22 28.89 513.87 C28.89 519.59 28.89 525.31 28.89 531.03 C28.9 539.3 28.91 547.57 28.91 555.84 C28.91 569.25 28.92 582.67 28.92 596.08 C28.93 609.11 28.94 622.15 28.95 635.18 C28.95 635.98 28.95 636.79 28.95 637.61 C28.95 641.64 28.95 645.67 28.95 649.7 C28.96 683.13 28.98 716.57 29 750 C30.86 750.69 30.86 750.69 33 751 C35.14 749.41 37.03 747.79 39 746 C44.24 741.59 49.54 737.95 55.62 734.79 C58.26 733.39 60.85 731.95 63.45 730.46 C74.96 723.89 86.58 718.61 99 714 C100 713.61 101 713.23 102.03 712.83 C104.67 711.83 107.32 710.9 110 710 C110.68 709.77 111.36 709.54 112.06 709.31 C121.56 706.12 130.93 703.37 140.8 701.64 C143.97 701.08 143.97 701.08 146.81 700.02 C150 699 152.98 698.45 156.3 698 C157.5 697.84 158.71 697.67 159.96 697.5 C161.21 697.34 162.46 697.17 163.75 697 C164.96 696.84 166.16 696.67 167.4 696.5 C170.6 696.07 173.79 695.66 176.99 695.26 C179 695 181.01 694.72 183.03 694.44 C196.57 692.66 210.1 692.61 223.75 692.62 C225.57 692.62 225.57 692.62 227.43 692.62 C246 692.64 263.73 693.6 282 697 C283.43 697.22 284.86 697.44 286.29 697.65 C305.76 700.78 325.3 706.82 344 713 C345.37 713.44 346.74 713.87 348.11 714.31 C349.47 714.75 350.83 715.19 352.19 715.62 C353.38 716.01 354.57 716.39 355.79 716.79 C358.81 717.93 361.27 719.3 364 721 C365.44 721.62 366.9 722.2 368.38 722.75 C385.55 729.46 404.52 737.67 419.3 748.79 C421.46 750.33 423.72 751.64 426 753 C436.69 759.56 446.7 766.62 456.35 774.63 C457.83 775.86 459.34 777.07 460.85 778.27 C474.98 789.52 488.28 802.26 500 816 C500.49 816.55 500.98 817.1 501.48 817.67 C505.28 821.96 508.6 826.53 511.93 831.18 C513.87 833.83 515.91 836.35 518 838.88 C521.74 843.49 524.79 848.38 527.84 853.47 C530.65 858.13 533.71 862.64 536.76 867.15 C539.91 871.82 539.91 871.82 541 874 C539.97 874.23 538.94 874.45 537.88 874.69 C533.74 875.85 531.26 878.22 528 881 C525.69 882.05 523.35 883.04 521 884 C517.03 886.08 513.15 888.31 509.31 890.62 C506.61 892.23 503.81 893.59 501 895 C496.8 897.24 492.7 899.53 488.75 902.19 C486.21 903.86 483.86 904.99 481 906 C481 906.66 481 907.32 481 908 C480.13 908.26 480.13 908.26 479.24 908.52 C474.2 910.08 470.35 911.95 466 915 C464.76 915.65 463.51 916.27 462.25 916.88 C459.07 918.42 456.07 920.14 453.06 922 C449.13 924.41 445.19 926.34 440.91 928.04 C438.83 929.09 437.62 930.35 436 932 C435.05 932.31 434.1 932.62 433.12 932.94 C429.7 934.1 427.77 935.72 425 938 C421.72 939.56 418.57 940.39 415 941 C414.75 940.44 414.51 939.88 414.25 939.31 C412.77 936.57 410.96 934.43 408.94 932.06 C405.52 927.96 402.37 923.79 399.38 919.38 C394.37 912.03 389.31 905.27 383 899 C381.18 897.17 379.36 895.34 377.54 893.51 C375.97 891.92 374.39 890.34 372.81 888.75 C371.73 887.67 370.66 886.59 369.58 885.51 C361.46 877.32 353.39 869.44 343.88 862.88 C340.47 860.51 337.19 858.17 334.05 855.45 C330.64 852.71 327.24 850.88 323.31 849 C322.26 848.49 322.26 848.49 321.19 847.96 C315.51 845.2 309.78 842.54 304 840 C302.8 839.46 301.61 838.93 300.38 838.38 C284.78 832.02 268.37 828.05 251.76 825.56 C249.61 825.24 247.45 824.9 245.31 824.5 C236.68 822.98 228.29 822.69 219.56 822.74 C217.24 822.75 214.92 822.74 212.6 822.73 C205.15 822.72 198.23 822.98 191 825 C189.4 825.3 187.79 825.59 186.19 825.88 C174.19 828.31 163.76 833.37 153 839 C153 839.66 153 840.32 153 841 C152.32 841.2 151.65 841.41 150.95 841.62 C146.97 843.48 144.07 846.15 140.81 849.06 C139.57 850.16 138.33 851.25 137.08 852.35 C136.54 852.83 135.99 853.32 135.43 853.82 C134 855 134 855 132 856 C125.18 866.39 120.64 877.65 120.69 890.12 C120.67 890.91 120.66 891.7 120.64 892.5 C120.63 897.26 121.16 900.03 124 904 C124.52 905.3 125 906.61 125.44 907.94 C129.07 917.95 136.3 923.51 145 929 C145.91 929.58 146.81 930.15 147.75 930.75 C150 932.07 150 932.07 152.56 933 C155 934 155 934 156.57 935.38 C160.22 937.81 164.17 938.72 168.38 939.88 C169.76 940.26 169.76 940.26 171.17 940.65 C184.83 944.4 198.65 947.86 212.73 949.54 C215.37 949.91 217.92 950.37 220.52 950.91 C226.94 952.22 233.4 953.23 239.88 954.25 C242.63 954.69 245.39 955.13 248.14 955.57 C249.21 955.75 249.21 955.75 250.31 955.92 C306.59 964.96 306.59 964.96 326.43 970.13 C329.68 970.92 332.88 971.51 336.19 972 C341.57 972.82 346.59 974.32 351.77 975.99 C354.91 976.97 358.05 977.79 361.25 978.56 C368.73 980.39 375.8 982.86 382.93 985.76 C386.98 987.39 391.05 988.98 395.12 990.56 C395.88 990.86 396.63 991.15 397.4 991.45 C401.02 992.85 404.63 994.24 408.26 995.59 C414.94 998.11 420.43 1000.52 426 1005 C427.57 1005.82 429.15 1006.61 430.75 1007.38 C435.84 1009.85 440.38 1012.74 445 1016 C445.53 1016.37 446.05 1016.74 446.6 1017.11 C450.21 1019.64 453.79 1022.2 457.35 1024.8 C458.8 1025.85 460.27 1026.89 461.73 1027.93 C468.72 1033.11 473.64 1039.47 478.78 1046.38 C480.38 1048.51 482.07 1050.56 483.75 1052.62 C498.08 1071.16 505.7 1092.7 509.49 1115.5 C509.98 1118.13 509.98 1118.13 511.03 1121.12 C512.27 1126.1 512.32 1130.77 512.34 1135.88 C512.34 1136.93 512.35 1137.98 512.36 1139.06 C512.37 1141.29 512.37 1143.51 512.37 1145.74 C512.37 1149.07 512.41 1152.39 512.45 1155.72 C512.52 1168.79 511.37 1180.91 508.5 1193.65 C507.49 1198.43 506.82 1203.26 506.1 1208.08 C505.46 1212.34 504.3 1216.08 502.71 1220.08 C501.28 1223.94 500.65 1228.02 499.84 1232.05 C498.99 1235.04 497.95 1236.62 496 1239 C495.31 1240.99 494.64 1242.99 494 1245 C493.34 1245.99 492.68 1246.98 492 1248 C492.33 1248.66 492.66 1249.32 493 1250 C564.17 1250.02 635.35 1250.03 706.52 1250.04 C707.58 1250.04 708.63 1250.04 709.71 1250.04 C732.59 1250.05 755.46 1250.05 778.34 1250.05 C789.55 1250.05 800.77 1250.05 811.99 1250.05 C813.1 1250.06 814.22 1250.06 815.37 1250.06 C851.58 1250.06 887.79 1250.07 924 1250.08 C961.2 1250.09 998.39 1250.09 1035.59 1250.09 C1040.84 1250.09 1046.09 1250.09 1051.34 1250.09 C1052.37 1250.09 1053.4 1250.1 1054.47 1250.1 C1071.12 1250.1 1087.78 1250.1 1104.44 1250.11 C1121.17 1250.11 1137.9 1250.11 1154.63 1250.11 C1164.58 1250.11 1174.53 1250.11 1184.48 1250.12 C1191.12 1250.12 1197.75 1250.12 1204.39 1250.12 C1208.18 1250.12 1211.97 1250.12 1215.76 1250.12 C1219.82 1250.13 1223.89 1250.13 1227.96 1250.12 C1229.16 1250.13 1230.35 1250.13 1231.57 1250.13 C1232.65 1250.13 1233.73 1250.13 1234.84 1250.12 C1235.77 1250.12 1236.7 1250.12 1237.66 1250.12 C1240.16 1250.1 1240.16 1250.1 1243 1249 C1243.21 1175.83 1243.4 1102.65 1243.51 1029.48 C1243.51 1027.86 1243.51 1027.86 1243.51 1026.2 C1243.55 1002.67 1243.58 979.14 1243.61 955.61 C1243.63 944.07 1243.64 932.54 1243.66 921 C1243.66 919.85 1243.66 918.7 1243.66 917.52 C1243.72 880.29 1243.81 843.06 1243.92 805.83 C1244.03 767.58 1244.1 729.33 1244.13 691.08 C1244.13 685.68 1244.13 680.28 1244.14 674.88 C1244.14 673.81 1244.14 672.75 1244.14 671.66 C1244.16 654.53 1244.21 637.41 1244.28 620.29 C1244.35 603.08 1244.38 585.88 1244.36 568.67 C1244.35 558.44 1244.38 548.22 1244.45 537.99 C1244.49 531.16 1244.5 524.33 1244.46 517.5 C1244.44 513.61 1244.44 509.72 1244.5 505.82 C1245.61 490.11 1245.61 490.11 1240.43 476.06 C1237.62 473.38 1234.49 471.71 1231 470 C1229.1 468.64 1227.22 467.24 1225.38 465.81 C1221.05 462.72 1216.68 459.68 1212.31 456.63 C1209.63 454.74 1207.01 452.78 1204.39 450.8 C1201.12 448.34 1197.81 445.92 1194.5 443.5 C1190.57 440.62 1186.64 437.75 1182.75 434.81 C1176.22 429.89 1169.6 425.09 1162.88 420.44 C1159.73 418.25 1156.69 416 1153.69 413.62 C1150.08 410.78 1146.36 408.15 1142.56 405.56 C1137.65 402.21 1132.99 398.65 1128.39 394.89 C1125.23 392.39 1121.92 390.11 1118.6 387.82 C1115.85 385.9 1113.18 383.9 1110.5 381.88 C1100.54 374.36 1090.38 367.11 1080.21 359.88 C1075.18 356.31 1070.24 352.66 1065.4 348.84 C1060.6 345.16 1055.63 341.71 1050.69 338.2 C1044.77 333.99 1038.9 329.71 1033.17 325.24 C1027.87 321.11 1022.52 317.28 1016.73 313.86 C1014.37 312.25 1012.38 310.6 1010.27 308.7 C1005.96 304.87 1001.36 301.68 996.56 298.5 C990.9 294.73 985.42 290.84 980.07 286.62 C977.26 284.42 974.36 282.37 971.44 280.31 C966.17 276.58 960.97 272.76 955.81 268.88 C946.62 261.96 937.42 255.16 927.73 248.96 C924.83 246.88 922.52 244.52 920 242 C918.37 240.88 916.7 239.82 915 238.81 C909.42 235.36 904.32 231.49 899.16 227.46 C895.57 224.65 891.88 221.98 888.18 219.31 C884.08 216.33 880.01 213.32 875.94 210.31 C859.53 198.2 859.53 198.2 842.88 186.44 C834.17 180.39 825.7 173.94 817.38 167.38 C812.05 163.21 806.53 159.32 801.01 155.42 C798.84 153.89 796.67 152.34 794.5 150.8 C792.98 149.72 791.46 148.64 789.94 147.56 C789.22 147.05 788.51 146.55 787.77 146.02 C784.94 144.01 782.12 142.07 779.14 140.29 C777 139 777 139 774.88 136.75 C772.28 134.27 769.98 132.67 766.94 130.81 C762.64 128.17 758.83 125.28 755 122 C750.42 118.09 745.76 114.84 740.64 111.7 C737.12 109.43 733.96 106.82 730.73 104.17 C727.55 101.64 724.26 99.28 720.94 96.94 C717.06 94.2 713.22 91.45 709.5 88.5 C701.85 82.46 693.8 76.95 685.81 71.38 C673.13 62.52 673.13 62.52 667.59 58.05 C664.61 55.69 661.54 53.5 658.44 51.31 C653.83 48.04 649.26 44.72 644.75 41.31 C640.99 38.48 637.21 35.67 633.38 32.94 C632.58 32.37 631.78 31.8 630.96 31.21 C629.1 29.82 629.1 29.82 627 30 Z " fill="#FAFCFC" transform="translate(0,0)"/>
<path d="M0 0 C0.66 0.33 1.32 0.66 2 1 C2 254.77 2 508.54 2 770 C-1.02 771.01 -3.01 771.12 -6.16 771.12 C-7.24 771.13 -8.32 771.13 -9.43 771.13 C-11.21 771.13 -11.21 771.13 -13.04 771.12 C-14.3 771.12 -15.56 771.13 -16.87 771.13 C-20.4 771.13 -23.93 771.13 -27.47 771.12 C-31.3 771.12 -35.14 771.12 -38.97 771.12 C-45.7 771.12 -52.43 771.12 -59.16 771.12 C-69.16 771.11 -79.17 771.11 -89.17 771.11 C-106 771.12 -122.83 771.11 -139.66 771.11 C-156.33 771.1 -173 771.1 -189.66 771.09 C-190.7 771.09 -191.74 771.09 -192.8 771.09 C-198.06 771.09 -203.32 771.09 -208.58 771.09 C-245.84 771.09 -283.11 771.08 -320.38 771.08 C-356.59 771.07 -392.8 771.06 -429.01 771.05 C-430.13 771.05 -431.24 771.05 -432.39 771.05 C-443.6 771.05 -454.8 771.05 -466 771.05 C-488.83 771.05 -511.65 771.05 -534.48 771.04 C-535.53 771.04 -536.58 771.04 -537.66 771.04 C-607.77 771.03 -677.89 771.02 -748 771 C-748.33 770.01 -748.66 769.02 -749 768 C-748.55 767.63 -748.09 767.26 -747.62 766.88 C-745.53 764.45 -744.95 762.04 -744 759 C-743.34 758.01 -742.68 757.02 -742 756 C-741.49 754.03 -741.04 752.05 -740.62 750.06 C-739.69 745.79 -738.61 741.78 -737.06 737.69 C-733.98 728.86 -732.92 719.48 -731.53 710.26 C-731.22 708.36 -730.89 706.47 -730.51 704.59 C-729.16 697.82 -728.69 691.37 -728.7 684.48 C-728.69 683.42 -728.69 682.36 -728.69 681.27 C-728.68 679.04 -728.68 676.81 -728.68 674.58 C-728.69 671.21 -728.66 667.84 -728.64 664.47 C-728.61 653.19 -728.96 642.91 -732 632 C-732.33 630.48 -732.65 628.96 -732.96 627.44 C-737.67 606.09 -747.12 586.64 -760.5 569.38 C-761.06 568.65 -761.61 567.93 -762.18 567.18 C-768.21 559.36 -774.09 552.99 -782 547 C-782.87 546.34 -782.87 546.34 -783.76 545.66 C-793.45 538.36 -803.3 531.92 -813.99 526.18 C-816 525 -816 525 -818.01 523.47 C-819.97 522.02 -821.77 521.08 -824 520.12 C-824.79 519.78 -825.59 519.44 -826.4 519.09 C-827.26 518.73 -828.12 518.37 -829 518 C-830.33 517.43 -830.33 517.43 -831.69 516.84 C-839.39 513.57 -847.2 510.63 -855.05 507.72 C-857.75 506.72 -860.44 505.71 -863.13 504.7 C-870.02 502.13 -876.99 500.22 -884.13 498.48 C-887.68 497.61 -891.13 496.68 -894.56 495.44 C-899.51 493.69 -904.62 492.81 -909.77 491.84 C-913.07 491.21 -916.34 490.45 -919.61 489.66 C-928.37 487.62 -937.22 486.06 -946.07 484.47 C-948.99 483.94 -951.92 483.41 -954.85 482.87 C-963.54 481.3 -972.22 479.75 -980.96 478.45 C-988.29 477.36 -995.61 476.15 -1002.93 474.96 C-1003.61 474.85 -1004.3 474.73 -1005 474.62 C-1006.38 474.39 -1007.76 474.17 -1009.14 473.95 C-1013.19 473.29 -1017.24 472.65 -1021.3 472.03 C-1032.53 470.28 -1043.62 468.07 -1054.69 465.5 C-1055.92 465.22 -1057.15 464.93 -1058.41 464.64 C-1064.34 463.23 -1070.23 461.72 -1076.08 460.03 C-1077.61 459.59 -1077.61 459.59 -1079.17 459.14 C-1082.32 457.87 -1084.42 456.17 -1087 454 C-1088.65 453.29 -1090.3 452.58 -1091.97 451.91 C-1098.32 449.07 -1104.02 445.82 -1108 440 C-1108.66 439.38 -1109.32 438.76 -1110 438.12 C-1114.32 433.53 -1116.63 427.75 -1119 422 C-1119.33 421.34 -1119.66 420.68 -1120 420 C-1120.91 405.95 -1119.96 393.47 -1111.27 381.8 C-1109.81 379.92 -1109.81 379.92 -1109 377 C-1106.79 375.1 -1104.57 373.32 -1102.25 371.56 C-1101.01 370.61 -1099.76 369.65 -1098.52 368.69 C-1097.92 368.24 -1097.32 367.78 -1096.7 367.31 C-1095.16 366.13 -1093.67 364.89 -1092.17 363.65 C-1090 362 -1090 362 -1088 362 C-1088 361.34 -1088 360.68 -1088 360 C-1081.3 356.49 -1074.66 353.32 -1067.5 350.87 C-1065.35 350.12 -1063.29 349.27 -1061.19 348.38 C-1056.3 346.5 -1051.14 346.06 -1045.98 345.43 C-1043.08 345.17 -1043.08 345.17 -1041 344 C-1035.61 343.72 -1030.21 343.76 -1024.81 343.75 C-1023.63 343.75 -1023.63 343.75 -1022.42 343.74 C-1007.21 343.74 -991.49 343.92 -977 349 C-974.76 349.51 -972.51 349.99 -970.25 350.44 C-947.56 355.22 -922.19 364.33 -904 379 C-901.09 381.11 -898.13 383.16 -895.17 385.2 C-891.41 387.85 -888.21 390.67 -885 394 C-883.61 395.24 -882.22 396.47 -880.81 397.69 C-875.64 402.31 -870.72 407.17 -865.81 412.06 C-865.05 412.82 -864.29 413.57 -863.51 414.35 C-856.95 420.93 -850.84 427.75 -845.19 435.12 C-844.77 435.67 -844.36 436.21 -843.93 436.77 C-840.3 441.53 -836.81 446.4 -833.4 451.33 C-831.64 453.84 -829.89 456.11 -827.71 458.28 C-826 460 -826 460 -826 462 C-820.79 461.35 -815.19 459.21 -811.45 455.43 C-809.33 453.34 -806.79 452.93 -804 452 C-803.52 451.51 -803.04 451.03 -802.55 450.53 C-800.38 448.39 -798.09 447.85 -795.23 446.94 C-792.22 445.67 -789.72 443.81 -787 442 C-783.51 440.19 -779.98 438.49 -776.44 436.78 C-772.96 435.06 -772.96 435.06 -769.8 432.85 C-767 431 -767 431 -763.19 429.94 C-761.61 429.47 -761.61 429.47 -760 429 C-759.67 428.01 -759.34 427.02 -759 426 C-757.31 425.24 -755.62 424.49 -753.9 423.82 C-751.03 422.58 -748.58 420.76 -746 419 C-744.02 417.96 -742.02 416.97 -740 416 C-738.29 415.17 -736.58 414.34 -734.88 413.5 C-734.05 413.1 -733.22 412.7 -732.37 412.28 C-730.05 411.03 -728.08 409.6 -726 408 C-723.2 406.53 -720.35 405.17 -717.5 403.8 C-716.61 403.37 -715.72 402.94 -714.81 402.5 C-713.97 402.1 -713.13 401.7 -712.27 401.28 C-709.98 400.13 -709.98 400.13 -708.43 398.41 C-707 397 -707 397 -703.38 396 C-702.26 395.67 -701.15 395.34 -700 395 C-699.67 394.01 -699.34 393.02 -699 392 C-697.46 391.3 -695.9 390.62 -694.33 390 C-689.04 387.72 -684.08 384.7 -679.06 381.88 C-677.84 381.19 -676.61 380.51 -675.39 379.82 C-671.92 377.89 -668.46 375.94 -665 374 C-663.49 373.16 -661.99 372.31 -660.48 371.47 C-654.92 368.35 -649.37 365.21 -643.84 362.06 C-632.33 355.51 -620.75 349.14 -609.08 342.89 C-602.39 339.3 -595.75 335.64 -589.18 331.84 C-585.65 329.8 -582.11 327.8 -578.56 325.81 C-571.87 322.05 -565.18 318.28 -558.5 314.5 C-556.51 313.37 -554.51 312.25 -552.52 311.12 C-549.31 309.31 -546.09 307.49 -542.89 305.66 C-534.68 301 -526.38 296.52 -518.06 292.06 C-510.2 287.85 -502.42 283.56 -494.77 278.97 C-486.53 274.06 -478.09 269.49 -469.68 264.88 C-462.45 260.92 -455.27 256.89 -448.13 252.79 C-444.33 250.62 -440.52 248.49 -436.69 246.38 C-429.16 242.2 -421.64 238.01 -414.12 233.81 C-413.1 233.24 -412.08 232.67 -411.03 232.09 C-404.88 228.64 -398.77 225.14 -392.7 221.57 C-389.22 219.54 -385.68 217.62 -382.14 215.71 C-371.64 210 -361.23 204.15 -350.88 198.19 C-342.06 193.12 -333.14 188.24 -324.17 183.45 C-319.36 180.87 -314.68 178.21 -310.08 175.28 C-305.83 172.66 -301.4 170.36 -297 168 C-295.31 167.08 -293.61 166.16 -291.92 165.25 C-291.08 164.79 -290.24 164.34 -289.38 163.87 C-279.54 158.52 -269.76 153.08 -260.03 147.54 C-253.72 143.96 -247.37 140.46 -241 137 C-231.07 131.58 -221.25 125.99 -211.5 120.25 C-201.76 114.52 -191.89 109.08 -181.9 103.79 C-176.23 100.78 -170.66 97.65 -165.17 94.31 C-162.49 92.7 -159.76 91.21 -157 89.75 C-149.41 85.7 -141.89 81.51 -134.37 77.32 C-131.96 75.98 -129.55 74.64 -127.13 73.31 C-126.33 72.87 -125.54 72.43 -124.72 71.98 C-123.21 71.15 -121.7 70.32 -120.19 69.49 C-116.79 67.6 -113.44 65.67 -110.16 63.58 C-105.25 60.47 -100.13 57.75 -95 55 C-92.28 53.53 -89.56 52.07 -86.85 50.6 C-85.04 49.62 -83.23 48.65 -81.43 47.68 C-76.41 44.96 -71.53 42.11 -66.69 39.09 C-59.89 34.87 -52.89 31.1 -45.81 27.38 C-38.5 23.52 -31.24 19.64 -24.19 15.33 C-21.13 13.47 -18 11.74 -14.88 10 C-9.61 7.04 -4.68 3.83 0 0 Z " fill="#626464" transform="translate(1241,479)"/>
<path d="M0 0 C3.4 1.27 6.37 2.75 9.44 4.69 C24.88 14.09 41.53 20.77 58.7 26.25 C60.9 26.97 63.07 27.73 65.25 28.5 C79.12 33.32 93.45 35.75 107.88 38.28 C111.91 38.98 115.94 39.72 119.97 40.45 C122.46 40.91 124.95 41.36 127.44 41.81 C128.57 42.02 129.71 42.23 130.88 42.44 C135.63 43.29 140.35 44.08 145.16 44.57 C149 45 149 45 151 46 C154.45 46.44 157.89 46.81 161.35 47.16 C164.99 47.56 168.47 48.06 172.01 49.01 C176.21 50.12 180.37 50.55 184.69 50.94 C189.96 51.47 195.04 52.12 200.19 53.44 C206.01 54.89 211.81 55.7 217.75 56.44 C226.25 57.49 234.72 58.67 243.19 60 C244.69 60.23 244.69 60.23 246.22 60.47 C255.03 61.88 263.72 63.61 272 67 C273.35 67.3 274.7 67.57 276.06 67.81 C284.35 69.57 292.17 73 299 78 C299.79 78.45 300.58 78.9 301.39 79.37 C310.78 85.23 318.42 95.45 321.44 106.12 C323.93 121.77 322.43 137.88 313 151 C310.08 154.99 306.83 157.88 303 161 C301.76 162.24 301.76 162.24 300.5 163.5 C276.28 187.72 233.37 194.14 200.62 194.44 C172.38 194.31 143.4 190.12 117 180 C115.58 179.5 114.15 179.01 112.72 178.53 C104.82 175.84 97.37 172.94 90 169 C88.06 168.06 86.13 167.12 84.19 166.19 C73.44 160.8 63.6 154.2 54 147 C53.35 146.53 52.7 146.07 52.03 145.59 C35.86 133.87 19.61 119.54 6.87 104.15 C5.09 102 5.09 102 3.15 100.36 C-2.67 94.55 -2.78 88.74 -2.85 80.96 C-2.84 78.07 -2.8 75.18 -2.75 72.29 C-2.75 70.26 -2.74 68.24 -2.74 66.22 C-2.73 61.99 -2.69 57.77 -2.64 53.55 C-2.57 48.13 -2.54 42.71 -2.53 37.29 C-2.51 32.12 -2.48 26.95 -2.44 21.79 C-2.44 20.8 -2.43 19.81 -2.43 18.79 C-2.41 16.01 -2.37 13.22 -2.34 10.44 C-2.33 9.61 -2.33 8.78 -2.33 7.92 C-2.23 2.23 -2.23 2.23 0 0 Z " fill="#58C3A7" transform="translate(31,1053)"/>
<path d="M0 0 C1.65 0.33 3.3 0.66 5 1 C5 1.66 5 2.32 5 3 C5.99 3 6.98 3 8 3 C8 3.66 8 4.32 8 5 C8.8 5.08 9.61 5.16 10.44 5.25 C13.47 5.89 15.36 6.59 18.06 7.94 C22.84 10.18 27.48 10.83 32.69 11.41 C35.39 11.89 37.35 12.48 39.84 13.5 C44.18 15.21 48.32 15.65 52.94 16 C57.63 16.36 61.85 16.84 66.29 18.47 C71.89 20.47 77.55 20.89 83.44 21.44 C92.01 22.32 100.27 23.54 108.64 25.59 C114.62 27.02 120.56 27.7 126.67 28.28 C131.91 28.81 136.78 29.86 141.86 31.28 C146.48 32.34 151.15 32.78 155.86 33.18 C160.27 33.6 163.84 34.63 167.93 36.28 C171.6 37.56 175.41 37.9 179.25 38.38 C186.18 39.33 191.93 40.94 198.3 43.94 C202.02 45.4 205.52 45.5 209.49 45.7 C212.77 46.09 215 47.34 217.83 48.96 C221.43 50.69 225.28 51.37 229.17 52.19 C232.19 53.05 234.33 54.37 237 56 C239 56.74 241.02 57.43 243.06 58.06 C248.63 59.81 248.63 59.81 251.11 61.08 C254.28 62.62 257.51 62.65 261 63 C261.33 63.99 261.66 64.98 262 66 C263.93 66.92 263.93 66.92 266.25 67.5 C269.86 68.6 272.9 69.77 276 72 C276.33 72.66 276.66 73.32 277 74 C278.32 74 279.64 74 281 74 C281 74.66 281 75.32 281 76 C282.32 76.66 283.64 77.32 285 78 C278.67 78.5 278.67 78.5 275.62 76.25 C274.76 75.51 273.89 74.76 273 74 C270.08 72.48 267.04 71.26 264 70 C263.11 69.62 262.23 69.24 261.31 68.85 C253.61 65.57 245.8 62.63 237.95 59.72 C235.25 58.72 232.56 57.71 229.87 56.7 C222.98 54.13 216.01 52.22 208.87 50.48 C205.32 49.61 201.87 48.68 198.44 47.44 C193.49 45.69 188.38 44.81 183.23 43.84 C179.93 43.21 176.66 42.45 173.39 41.66 C164.63 39.62 155.78 38.06 146.93 36.47 C144.01 35.94 141.08 35.41 138.15 34.87 C129.46 33.3 120.78 31.75 112.04 30.45 C104.71 29.36 97.39 28.15 90.07 26.96 C89.39 26.85 88.7 26.73 88 26.62 C86.62 26.39 85.24 26.17 83.86 25.95 C79.81 25.29 75.76 24.65 71.7 24.03 C60.47 22.28 49.38 20.07 38.31 17.5 C36.47 17.07 36.47 17.07 34.59 16.64 C28.66 15.23 22.77 13.72 16.92 12.03 C15.9 11.74 14.88 11.44 13.83 11.14 C10.69 9.87 8.56 8.2 6 6 C4.05 4.94 4.05 4.94 2.19 4.25 C1.14 3.84 0.08 3.42 -1 3 C-0.67 2.01 -0.34 1.02 0 0 Z " fill="#2D2E2F" transform="translate(148,927)"/>
<path d="M0 0 C0.99 0 1.98 0 3 0 C5.43 8.27 6.45 15.82 6.4 24.42 C6.4 25.57 6.4 26.71 6.41 27.89 C6.41 30.29 6.4 32.69 6.39 35.1 C6.38 38.73 6.39 42.36 6.41 45.98 C6.42 58.4 5.83 69.9 3 82 C2.72 83.64 2.46 85.29 2.23 86.94 C0.74 97.02 -1.77 106.35 -5 116 C-5.53 117.81 -6.05 119.62 -6.56 121.44 C-7.96 126.15 -9.89 130.56 -12 135 C-14.17 131.74 -14.46 130.78 -14 127 C-13.53 126.41 -13.06 125.82 -12.57 125.21 C-10.64 122.5 -10.21 120.26 -9.56 117 C-8.66 112.73 -7.61 108.76 -6.06 104.69 C-2.98 95.86 -1.92 86.48 -0.53 77.26 C-0.22 75.37 0.11 73.48 0.49 71.6 C1.87 64.74 2.29 58.21 2.27 51.23 C2.27 50.16 2.27 49.08 2.27 47.97 C2.27 45.71 2.27 43.45 2.26 41.19 C2.25 37.75 2.26 34.3 2.27 30.85 C2.27 28.65 2.27 26.44 2.27 24.23 C2.27 23.21 2.27 22.19 2.28 21.13 C2.24 15.66 1.71 11.19 0 6 C-0.12 2.56 -0.12 2.56 0 0 Z " fill="#292A2B" transform="translate(510,1112)"/>
<path d="M0 0 C2.93 0.63 5.36 1.59 8 3 C8 3.66 8 4.32 8 5 C8.59 5.11 9.18 5.21 9.79 5.32 C12.29 6.09 13.43 7.04 15.31 8.81 C18.65 11.81 22.04 13.9 26 16 C26 16.66 26 17.32 26 18 C26.57 18.1 27.14 18.19 27.73 18.29 C39.13 21.84 48.97 38.49 55 48 C55 48.66 55 49.32 55 50 C55.66 50 56.32 50 57 50 C77.31 85.38 77.31 85.38 77 103 C75 100 75 100 75 98 C73.51 97.51 73.51 97.51 72 97 C71.89 96.18 71.89 96.18 71.77 95.34 C68.53 75.77 57.48 56.83 45.5 41.38 C44.94 40.65 44.39 39.93 43.82 39.18 C37.79 31.36 31.91 24.99 24 19 C23.42 18.56 22.84 18.12 22.24 17.66 C14.74 12.01 7.22 6.58 -1 2 C-0.67 1.34 -0.34 0.68 0 0 Z " fill="#2A2B2C" transform="translate(435,1007)"/>
<path d="M0 0 C0.94 0.1 1.88 0.2 2.84 0.3 C10.65 1.33 18.28 3.14 25.94 4.94 C27.03 5.19 28.12 5.44 29.24 5.7 C34.54 6.98 39.21 8.33 44 11 C45.36 11.49 46.74 11.96 48.12 12.38 C53.9 14.23 59.45 16.57 65 19 C66.22 19.53 66.22 19.53 67.47 20.07 C71.38 21.87 73.34 23.04 75 27 C71.58 26.42 68.7 25.55 65.56 24.07 C64.32 23.5 64.32 23.5 63.06 22.92 C62.19 22.51 61.33 22.1 60.44 21.69 C53.06 18.31 45.79 15.29 38 13 C36.67 12.59 35.35 12.18 34.02 11.76 C21.07 7.77 8.14 5.17 -5.32 3.47 C-10.9 2.76 -16.45 1.88 -22 1 C-22 0.67 -22 0.34 -22 0 C-14.49 -1.15 -7.54 -0.83 0 0 Z " fill="#2D2E2F" transform="translate(248,825)"/>
<path d="M0 0 C5.27 0.51 9.1 1.48 13.69 4.07 C17.31 5.79 21.16 6.49 25.07 7.31 C28.09 8.17 30.23 9.48 32.9 11.12 C34.9 11.86 36.92 12.54 38.96 13.18 C44.53 14.93 44.53 14.93 47 16.2 C50.18 17.74 53.41 17.77 56.9 18.12 C57.39 19.6 57.39 19.6 57.9 21.12 C59.83 22.03 59.83 22.03 62.15 22.62 C65.76 23.72 68.8 24.89 71.9 27.12 C72.39 28.11 72.39 28.11 72.9 29.12 C74.22 29.12 75.54 29.12 76.9 29.12 C76.9 29.78 76.9 30.44 76.9 31.12 C78.22 31.78 79.54 32.44 80.9 33.12 C74.57 33.61 74.57 33.61 71.52 31.37 C70.66 30.62 69.79 29.88 68.9 29.12 C65.98 27.6 62.94 26.37 59.9 25.12 C58.57 24.55 58.57 24.55 57.21 23.96 C49.51 20.69 41.7 17.74 33.85 14.84 C31.15 13.84 28.46 12.83 25.77 11.81 C18.75 9.2 11.68 7.25 4.39 5.56 C1.07 4.77 -1.22 4.04 -4.1 2.12 C-2.1 0.12 -2.1 0.12 0 0 Z " fill="#2F3031" transform="translate(352.1015625,971.8828125)"/>
<path d="M0 0 C3.77 1.26 5.26 3.14 8 6 C9.83 7.82 11.66 9.64 13.49 11.46 C15.08 13.03 16.66 14.61 18.25 16.19 C19.33 17.27 20.41 18.34 21.49 19.42 C29.6 27.46 37.33 35.64 44.31 44.69 C44.74 45.23 45.17 45.77 45.61 46.33 C48 49.42 49.75 52.29 51 56 C50.01 56.5 50.01 56.5 49 57 C47.5 55.69 47.5 55.69 46 54 C46 53.01 46 52.02 46 51 C45.34 51 44.68 51 44 51 C43.71 50.03 43.42 49.06 43.12 48.06 C42.36 44.89 42.36 44.89 40 44 C38.66 42.34 37.33 40.67 36 39 C32.64 35.53 29.13 32.25 25.58 28.99 C19.21 23.11 13.04 17.1 7.12 10.75 C6.54 10.12 5.95 9.49 5.34 8.84 C2.99 6.28 0.93 3.9 -1 1 C-0.67 0.67 -0.34 0.34 0 0 Z " fill="#292A2B" transform="translate(352,870)"/>
<path d="M0 0 C0.33 0 0.66 0 1 0 C1.32 10.55 1.14 19.83 -2 30 C-2.46 31.66 -2.91 33.32 -3.36 34.98 C-5.99 44.62 -8.76 53.93 -13 63 C-15.17 59.74 -15.46 58.78 -15 55 C-14.53 54.41 -14.06 53.82 -13.57 53.21 C-11.64 50.5 -11.21 48.26 -10.56 45 C-9.66 40.73 -8.61 36.76 -7.06 32.69 C-3.85 23.56 -2.84 13.77 -1.42 4.24 C-1 2 -1 2 0 0 Z " fill="#424444" transform="translate(511,1184)"/>
<path d="M0 0 C11.39 13.46 21.28 35.21 21 53 C19 50 19 50 19 48 C17.51 47.51 17.51 47.51 16 47 C15.93 46.45 15.85 45.9 15.77 45.34 C13.8 33.42 7.73 14.73 -1 6 C-1.19 3.44 -1.19 3.44 -1 1 C-0.67 0.67 -0.34 0.34 0 0 Z " fill="#2E2F30" transform="translate(491,1057)"/>
<path d="M0 0 C-2.43 2.74 -5.01 4.72 -8.06 6.69 C-20.48 14.83 -29.23 23.8 -36 37 C-38.07 33.27 -38.07 33.27 -37.44 30.81 C-36.96 29.88 -36.49 28.96 -36 28 C-35.75 27.36 -35.5 26.72 -35.24 26.07 C-31.75 18.33 -25.31 14.07 -18.64 9.22 C-17.12 8.09 -15.65 6.88 -14.19 5.68 C-12 4 -12 4 -10 4 C-10 3.34 -10 2.68 -10 2 C-6.38 -0.8 -4.38 -1.38 0 0 Z " fill="#292A2B" transform="translate(163,837)"/>
<path d="M0 0 C-0.33 0.99 -0.66 1.98 -1 3 C-1.71 2.89 -2.41 2.78 -3.14 2.67 C-10.09 1.59 -17.04 0.54 -24 -0.5 C-31.67 -1.65 -39.34 -2.81 -47 -4 C-47 -4.33 -47 -4.66 -47 -5 C-31.28 -7.4 -15.18 -4.1 0 0 Z " fill="#2B2D2D" transform="translate(273,830)"/>
<path d="M0 0 C3.3 0.33 6.6 0.66 10 1 C10.33 1.99 10.66 2.98 11 4 C12.93 4.92 12.93 4.92 15.25 5.5 C18.86 6.6 21.9 7.77 25 10 C25.33 10.66 25.66 11.32 26 12 C27.32 12 28.64 12 30 12 C30 12.66 30 13.32 30 14 C31.32 14.66 32.64 15.32 34 16 C27.67 16.5 27.67 16.5 24.62 14.25 C23.76 13.51 22.89 12.76 22 12 C18.06 9.95 13.91 8.36 9.79 6.74 C8.7 6.31 7.62 5.88 6.5 5.44 C5.48 5.04 4.46 4.65 3.41 4.25 C1 3 1 3 0 0 Z " fill="#2F3031" transform="translate(399,989)"/>
<path d="M0 0 C0.33 0 0.66 0 1 0 C1.31 10.47 1.31 19.93 -2 30 C-2.29 30.9 -2.57 31.8 -2.87 32.73 C-3.55 34.83 -4.27 36.92 -5 39 C-5.33 39 -5.66 39 -6 39 C-5.11 31.52 -5.11 31.52 -4.49 28.64 C-3.92 25.56 -3.77 22.56 -3.62 19.44 C-3.19 12.69 -1.89 6.48 0 0 Z " fill="#363738" transform="translate(511,1184)"/>
<path d="M0 0 C2.75 0.81 2.75 0.81 5 2 C-2.38 6.92 -10.02 11.14 -18 15 C-19.33 15.66 -20.67 16.33 -22 17 C-22.33 16.34 -22.66 15.68 -23 15 C-20.8 13.21 -18.99 12 -16.31 11 C-15.55 10.67 -14.79 10.34 -14 10 C-13.67 9.01 -13.34 8.02 -13 7 C-11.07 5.94 -11.07 5.94 -8.69 5 C-5.94 3.88 -4.05 3.04 -1.75 1.12 C-1.17 0.75 -0.6 0.38 0 0 Z " fill="#323434" transform="translate(515,887)"/>
<path d="M0 0 C-6.42 3.33 -12.88 4.39 -20 5 C-20.66 4.01 -21.32 3.02 -22 2 C-17.74 -2.26 -5.42 -0.07 0 0 Z " fill="#2C2D2E" transform="translate(205,825)"/>
<path d="M0 0 C0.66 0.33 1.32 0.66 2 1 C0.77 2.1 0.77 2.1 -0.48 3.23 C-1.57 4.22 -2.66 5.2 -3.75 6.19 C-4.56 6.91 -4.56 6.91 -5.38 7.65 C-8.59 10.57 -11.35 13.55 -14 17 C-15.31 18.35 -16.64 19.69 -18 21 C-16.55 13.45 -12.75 9.51 -6.81 5.12 C-6.16 4.63 -5.5 4.13 -4.83 3.62 C-3.23 2.4 -1.62 1.2 0 0 Z " fill="#575959" transform="translate(146,845)"/>
<path d="M0 0 C4.97 1.55 9.19 4.5 13 8 C13.33 8.99 13.66 9.98 14 11 C10.52 10.33 7.81 8.96 4.75 7.19 C3.86 6.69 2.97 6.18 2.05 5.67 C1.03 4.84 1.03 4.84 0 4 C0 2.68 0 1.36 0 0 Z " fill="#2C2D2E" transform="translate(335,858)"/>
<path d="M0 0 C2.93 0.63 5.36 1.59 8 3 C8 3.66 8 4.32 8 5 C8.58 5.08 9.15 5.16 9.75 5.25 C12.62 6.21 14 7.78 16 10 C15.67 10.66 15.34 11.32 15 12 C14.43 11.61 13.86 11.23 13.28 10.83 C8.61 7.68 3.92 4.72 -1 2 C-0.67 1.34 -0.34 0.68 0 0 Z " fill="#2F3031" transform="translate(435,1007)"/>
<path d="M0 0 C5.42 -0.23 9.77 0.53 15 2 C15 2.66 15 3.32 15 4 C9.66 5.33 6.12 4.74 1 3 C0.67 2.01 0.34 1.02 0 0 Z " fill="#323334" transform="translate(271,831)"/>
<path d="M0 0 C4.94 0.49 8.75 1.37 13 4 C13.33 4.99 13.66 5.98 14 7 C8.93 6.35 4.58 4.15 0 2 C0 1.34 0 0.68 0 0 Z " fill="#343536" transform="translate(385,984)"/>
<path d="M0 0 C3.65 1.53 5.9 3.72 8.62 6.56 C11.51 9.69 11.51 9.69 15 12 C14.67 12.99 14.34 13.98 14 15 C9.15 10.84 4.36 6.68 0 2 C0 1.34 0 0.68 0 0 Z " fill="#58BDA3" transform="translate(363,886)"/>
<path d="M0 0 C3.81 1.49 5.5 3.62 7.81 6.94 C8.44 7.81 9.06 8.69 9.71 9.59 C10.13 10.39 10.56 11.18 11 12 C10.67 12.99 10.34 13.98 10 15 C8 13.69 8 13.69 6 12 C6 11.01 6 10.02 6 9 C5.34 9 4.68 9 4 9 C3.71 8.03 3.42 7.06 3.12 6.06 C2.36 2.89 2.36 2.89 0 2 C0 1.34 0 0.68 0 0 Z " fill="#2C2D2E" transform="translate(392,912)"/>
<path d="M0 0 C-3.49 4.36 -6.73 4.95 -12 6 C-12 5.34 -12 4.68 -12 4 C-11.34 4 -10.68 4 -10 4 C-10 3.34 -10 2.68 -10 2 C-6.38 -0.8 -4.38 -1.38 0 0 Z " fill="#414243" transform="translate(163,837)"/>
<path d="M0 0 C0.33 0.66 0.66 1.32 1 2 C0.27 4.07 -0.56 6.11 -1.44 8.12 C-1.91 9.22 -2.38 10.32 -2.87 11.45 C-3.24 12.29 -3.62 13.13 -4 14 C-6.15 10.77 -6.2 9.72 -6 6 C-5.38 5.75 -4.76 5.51 -4.12 5.25 C-1.65 3.79 -1.05 2.62 0 0 Z " fill="#292A2B" transform="translate(502,1233)"/>
<path d="M0 0 C2.62 0.94 2.62 0.94 5 2 C0.5 5 0.5 5 -4 8 C-4.66 7.67 -5.32 7.34 -6 7 C-2.25 1.12 -2.25 1.12 0 0 Z " fill="#292B2B" transform="translate(515,887)"/>
<path d="M0 0 C0 3.44 -0.8 4.75 -2.5 7.69 C-2.96 8.5 -3.43 9.3 -3.91 10.14 C-4.45 11.06 -4.45 11.06 -5 12 C-7.08 8.33 -7.08 8.33 -6.38 5.38 C-4.83 2.7 -3.82 2.09 -1 1 C-0.67 0.67 -0.34 0.34 0 0 Z " fill="#292B2B" transform="translate(132,862)"/>
<path d="M0 0 C-3.42 3.15 -6.44 3.56 -11 4 C-10.69 2.06 -10.69 2.06 -10 0 C-6.31 -1.23 -3.79 -0.64 0 0 Z " fill="#2D2F2F" transform="translate(179,831)"/>
<path d="M0 0 C0.33 0.66 0.66 1.32 1 2 C-3.95 3.49 -3.95 3.49 -9 5 C-9 3.68 -9 2.36 -9 1 C-5.68 -1.09 -3.73 -1.21 0 0 Z " fill="#28292A" transform="translate(479,911)"/>
<path d="M0 0 C0 3.74 -0.93 4.45 -3.38 7.19 C-4 7.9 -4.63 8.62 -5.27 9.36 C-7 11 -7 11 -9 11 C-7.59 7.78 -5.9 5.68 -3.38 3.25 C-2.74 2.64 -2.11 2.02 -1.46 1.39 C-0.74 0.7 -0.74 0.7 0 0 Z " fill="#28292A" transform="translate(141,851)"/>
</svg>
